<mxfile host="app.diagrams.net" modified="2024-04-22T19:15:14.790Z" agent="Mozilla/5.0 (Windows NT 10.0; Win64; x64) AppleWebKit/537.36 (KHTML, like Gecko) Chrome/124.0.0.0 Safari/537.36" etag="Y_l8csmWqes6LdHS1Hed" version="24.2.8" type="device">
  <diagram name="Página-1" id="2CWTe7SaFEYIOJYP8Gkp">
    <mxGraphModel dx="797" dy="414" grid="1" gridSize="10" guides="1" tooltips="1" connect="1" arrows="1" fold="1" page="1" pageScale="1" pageWidth="827" pageHeight="1169" math="0" shadow="0">
      <root>
        <mxCell id="0" />
        <mxCell id="1" parent="0" />
        <mxCell id="1ZHDqDq9iI9-yWHOfSnv-1" value="" style="rounded=0;whiteSpace=wrap;html=1;" vertex="1" parent="1">
          <mxGeometry x="50" width="700" height="1980" as="geometry" />
        </mxCell>
        <mxCell id="1ZHDqDq9iI9-yWHOfSnv-2" value="Barra de navegação" style="rounded=0;whiteSpace=wrap;html=1;" vertex="1" parent="1">
          <mxGeometry x="340" y="60" width="390" height="60" as="geometry" />
        </mxCell>
        <mxCell id="1ZHDqDq9iI9-yWHOfSnv-3" value="Logo" style="rounded=0;whiteSpace=wrap;html=1;" vertex="1" parent="1">
          <mxGeometry x="80" y="60" width="120" height="60" as="geometry" />
        </mxCell>
        <mxCell id="1ZHDqDq9iI9-yWHOfSnv-4" value="Nome" style="rounded=0;whiteSpace=wrap;html=1;" vertex="1" parent="1">
          <mxGeometry x="74" y="150" width="280" height="30" as="geometry" />
        </mxCell>
        <mxCell id="1ZHDqDq9iI9-yWHOfSnv-5" value="função" style="rounded=0;whiteSpace=wrap;html=1;" vertex="1" parent="1">
          <mxGeometry x="74" y="190" width="280" height="30" as="geometry" />
        </mxCell>
        <mxCell id="1ZHDqDq9iI9-yWHOfSnv-6" value="texto de abresentação breve" style="rounded=0;whiteSpace=wrap;html=1;" vertex="1" parent="1">
          <mxGeometry x="74" y="240" width="280" height="60" as="geometry" />
        </mxCell>
        <mxCell id="1ZHDqDq9iI9-yWHOfSnv-7" value="imagem 1" style="rounded=0;whiteSpace=wrap;html=1;" vertex="1" parent="1">
          <mxGeometry x="430" y="150" width="280" height="160" as="geometry" />
        </mxCell>
        <mxCell id="1ZHDqDq9iI9-yWHOfSnv-8" value="Minhas especialidades" style="rounded=0;whiteSpace=wrap;html=1;" vertex="1" parent="1">
          <mxGeometry x="210" y="360" width="390" height="30" as="geometry" />
        </mxCell>
        <mxCell id="1ZHDqDq9iI9-yWHOfSnv-9" value="especialidade 1" style="rounded=0;whiteSpace=wrap;html=1;" vertex="1" parent="1">
          <mxGeometry x="110" y="430" width="180" height="190" as="geometry" />
        </mxCell>
        <mxCell id="1ZHDqDq9iI9-yWHOfSnv-10" value="especialidade 3" style="rounded=0;whiteSpace=wrap;html=1;" vertex="1" parent="1">
          <mxGeometry x="540" y="430" width="180" height="190" as="geometry" />
        </mxCell>
        <mxCell id="1ZHDqDq9iI9-yWHOfSnv-11" value="especialidade 2" style="rounded=0;whiteSpace=wrap;html=1;" vertex="1" parent="1">
          <mxGeometry x="324" y="430" width="180" height="190" as="geometry" />
        </mxCell>
        <mxCell id="1ZHDqDq9iI9-yWHOfSnv-13" value="sobre mim" style="rounded=0;whiteSpace=wrap;html=1;" vertex="1" parent="1">
          <mxGeometry x="219" y="660" width="390" height="30" as="geometry" />
        </mxCell>
        <mxCell id="1ZHDqDq9iI9-yWHOfSnv-15" value="imagem 2" style="ellipse;whiteSpace=wrap;html=1;aspect=fixed;" vertex="1" parent="1">
          <mxGeometry x="344" y="710" width="140" height="140" as="geometry" />
        </mxCell>
        <mxCell id="1ZHDqDq9iI9-yWHOfSnv-17" value="texto aprofundado sobre mim" style="rounded=0;whiteSpace=wrap;html=1;" vertex="1" parent="1">
          <mxGeometry x="180" y="870" width="470" height="60" as="geometry" />
        </mxCell>
        <mxCell id="1ZHDqDq9iI9-yWHOfSnv-20" value="rede social-1" style="ellipse;whiteSpace=wrap;html=1;aspect=fixed;" vertex="1" parent="1">
          <mxGeometry x="260" y="950" width="50" height="50" as="geometry" />
        </mxCell>
        <mxCell id="1ZHDqDq9iI9-yWHOfSnv-21" value="rede social-5" style="ellipse;whiteSpace=wrap;html=1;aspect=fixed;" vertex="1" parent="1">
          <mxGeometry x="520" y="950" width="50" height="50" as="geometry" />
        </mxCell>
        <mxCell id="1ZHDqDq9iI9-yWHOfSnv-22" value="rede social-4" style="ellipse;whiteSpace=wrap;html=1;aspect=fixed;" vertex="1" parent="1">
          <mxGeometry x="450" y="950" width="50" height="50" as="geometry" />
        </mxCell>
        <mxCell id="1ZHDqDq9iI9-yWHOfSnv-23" value="rede social-3" style="ellipse;whiteSpace=wrap;html=1;aspect=fixed;" vertex="1" parent="1">
          <mxGeometry x="390" y="950" width="50" height="50" as="geometry" />
        </mxCell>
        <mxCell id="1ZHDqDq9iI9-yWHOfSnv-26" value="&lt;br&gt;&lt;span style=&quot;color: rgb(0, 0, 0); font-family: Helvetica; font-size: 12px; font-style: normal; font-variant-ligatures: normal; font-variant-caps: normal; font-weight: 400; letter-spacing: normal; orphans: 2; text-align: center; text-indent: 0px; text-transform: none; widows: 2; word-spacing: 0px; -webkit-text-stroke-width: 0px; white-space: normal; background-color: rgb(251, 251, 251); text-decoration-thickness: initial; text-decoration-style: initial; text-decoration-color: initial; display: inline !important; float: none;&quot;&gt;rede social-2&lt;/span&gt;&lt;div&gt;&lt;br/&gt;&lt;/div&gt;" style="ellipse;whiteSpace=wrap;html=1;aspect=fixed;" vertex="1" parent="1">
          <mxGeometry x="320" y="950" width="50" height="50" as="geometry" />
        </mxCell>
        <mxCell id="1ZHDqDq9iI9-yWHOfSnv-29" value="Meus projetos" style="rounded=0;whiteSpace=wrap;html=1;" vertex="1" parent="1">
          <mxGeometry x="219" y="1050" width="390" height="30" as="geometry" />
        </mxCell>
        <mxCell id="1ZHDqDq9iI9-yWHOfSnv-30" value="projeto 1" style="rounded=1;whiteSpace=wrap;html=1;" vertex="1" parent="1">
          <mxGeometry x="130" y="1150" width="120" height="190" as="geometry" />
        </mxCell>
        <mxCell id="1ZHDqDq9iI9-yWHOfSnv-31" value="projeto 3" style="rounded=1;whiteSpace=wrap;html=1;" vertex="1" parent="1">
          <mxGeometry x="570" y="1150" width="120" height="190" as="geometry" />
        </mxCell>
        <mxCell id="1ZHDqDq9iI9-yWHOfSnv-32" value="projeto 2" style="rounded=1;whiteSpace=wrap;html=1;" vertex="1" parent="1">
          <mxGeometry x="354" y="1150" width="120" height="190" as="geometry" />
        </mxCell>
        <mxCell id="1ZHDqDq9iI9-yWHOfSnv-34" value="Nome" style="rounded=0;whiteSpace=wrap;html=1;" vertex="1" parent="1">
          <mxGeometry x="210" y="1490" width="170" height="60" as="geometry" />
        </mxCell>
        <mxCell id="1ZHDqDq9iI9-yWHOfSnv-35" value="email" style="rounded=0;whiteSpace=wrap;html=1;" vertex="1" parent="1">
          <mxGeometry x="430" y="1490" width="170" height="60" as="geometry" />
        </mxCell>
        <mxCell id="1ZHDqDq9iI9-yWHOfSnv-36" value="numero" style="rounded=0;whiteSpace=wrap;html=1;" vertex="1" parent="1">
          <mxGeometry x="210" y="1570" width="170" height="60" as="geometry" />
        </mxCell>
        <mxCell id="1ZHDqDq9iI9-yWHOfSnv-37" value="assunto email" style="rounded=0;whiteSpace=wrap;html=1;" vertex="1" parent="1">
          <mxGeometry x="430" y="1570" width="170" height="60" as="geometry" />
        </mxCell>
        <mxCell id="1ZHDqDq9iI9-yWHOfSnv-38" value="texto do email" style="rounded=0;whiteSpace=wrap;html=1;" vertex="1" parent="1">
          <mxGeometry x="219" y="1680" width="391" height="150" as="geometry" />
        </mxCell>
        <mxCell id="1ZHDqDq9iI9-yWHOfSnv-39" value="Contate-me" style="rounded=0;whiteSpace=wrap;html=1;" vertex="1" parent="1">
          <mxGeometry x="205" y="1410" width="390" height="30" as="geometry" />
        </mxCell>
        <mxCell id="1ZHDqDq9iI9-yWHOfSnv-40" value="enviar" style="rounded=0;whiteSpace=wrap;html=1;" vertex="1" parent="1">
          <mxGeometry x="380" y="1850" width="75" height="40" as="geometry" />
        </mxCell>
        <mxCell id="1ZHDqDq9iI9-yWHOfSnv-41" value="botao de contato" style="rounded=0;whiteSpace=wrap;html=1;" vertex="1" parent="1">
          <mxGeometry x="80" y="310" width="100" height="20" as="geometry" />
        </mxCell>
      </root>
    </mxGraphModel>
  </diagram>
</mxfile>
